PathFileType	4	(x/y/z)	S02_M20_T05
DataRate	CameraRate	NumFrames	NumMarkers	Units	OrigDataRate	OrigDataStartFrame	OrigNumFrames
240	240	9	51	mm	240	287	459
Frame#	Time	Sternum			R.Acromium			L.Acromium			Top.Head			R.ASIS			L.ASIS			R.PSIS			L.PSIS			R.Great.Tro			L.Great.Tro			R.Iliac.Crest			L.Iliac.Crest			V.Sacral			R.Thigh.Upper.Post			R.Thigh.Lower.Ant			R.Thigh.Lower.Post			R.Thigh.Upper.Ant			R.Knee.Lat			R.Knee.Med			R.Shank.Upper.Post			R.Shank.Lower.Ant			R.Shank.Lower.Post			R.Shank.Upper.Ant			R.Ankle.Lat			R.Ankle.Med			R.Heel.Upper			R.Heel.Med			R.Heel.Lat			R.Toe.Lat			R.Toe.Med			R.Toe.Tip			L.Thigh.Upper.Post			L.Thigh.Lower.Ant			L.Thigh.Lower.Post			L.Thigh.Upper.Ant			L.Knee.Lat			L.Knee.Med			L.Shank.Upper.Post			L.Shank.Lower.Ant			L.Shank.Lower.Post			L.Shank.Upper.Ant			L.Ankle.Lat			L.Ankle.Med			L.Heel.Upper			L.Heel.Med			L.Heel.Lat			L.Toe.Lat			L.Toe.Med			L.Toe.Tip			Cervical.Spine			Back			
		X1	Y1	Z1	X2	Y2	Z2	X3	Y3	Z3	X4	Y4	Z4	X5	Y5	Z5	X6	Y6	Z6	X7	Y7	Z7	X8	Y8	Z8	X9	Y9	Z9	X10	Y10	Z10	X11	Y11	Z11	X12	Y12	Z12	X13	Y13	Z13	X14	Y14	Z14	X15	Y15	Z15	X16	Y16	Z16	X17	Y17	Z17	X18	Y18	Z18	X19	Y19	Z19	X20	Y20	Z20	X21	Y21	Z21	X22	Y22	Z22	X23	Y23	Z23	X24	Y24	Z24	X25	Y25	Z25	X26	Y26	Z26	X27	Y27	Z27	X28	Y28	Z28	X29	Y29	Z29	X30	Y30	Z30	X31	Y31	Z31	X32	Y32	Z32	X33	Y33	Z33	X34	Y34	Z34	X35	Y35	Z35	X36	Y36	Z36	X37	Y37	Z37	X38	Y38	Z38	X39	Y39	Z39	X40	Y40	Z40	X41	Y41	Z41	X42	Y42	Z42	X43	Y43	Z43	X44	Y44	Z44	X45	Y45	Z45	X46	Y46	Z46	X47	Y47	Z47	X48	Y48	Z48	X49	Y49	Z49	X50	Y50	Z50	X51	Y51	Z51	

287	1.1917	32.836	1062.8	310.45	-76.836	1292.5	445.96	-78.15	1301.7	152.64	-46.093	1581.4	309.65	-16.912	886.93	433.42	47.222	883.22	221.45	-208.94	924.79	310.09	-191.16	926.02	238.74	-129.98	784.5	496.34	-41.384	792.83	104.42	-132.94	933.03	458.22	-57.587	928.43	123.36	-226.52	879.55	259.03	-179.8	590.8	465.79	-151.09	498.69	432.3	-221.93	515.06	440.41	-112.75	576.13	456.79	-232.37	434.87	421.51	-231.67	427.01	277.9	-395.02	284.38	391.75	-366.28	179.18	370.99	-422.58	216.49	377.39	-337.19	239.93	391.53	-450.98	121.93	358.77	-437.93	136.41	277.36	-514.18	128.12	303.64	-510.61	94.853	275.27	-520.06	96.273	338.55	-371.95	39.299	380.66	-341.9	32.516	272.91	-291.61	51.737	326.84	22.63	568.01	133.2	126.5	534.27	147.14	62.513	489.67	159.91	77.046	612.12	121.63	145.98	456.85	158.07	144.06	454.86	301.95	148.42	267.49	166.58	252.55	226.66	172.72	184.1	203.3	182.32	209.96	288.43	157.9	272.54	112.57	187.31	289.52	124.95	268.64	241.89	56.241	231.01	263.33	44.054	266.38	259.73	30.43	206.1	403.53	103.45	159.08	418.37	140.67	261.29	457.21	180.65	207.18	-152.98	1357.6	305.26	-230.47	1104.6	300.01
288	1.1958	39.233	1062.3	310.05	-70.575	1292.1	445.07	-71.75	1300.9	151.78	-40.245	1580.9	308.45	-10.743	886.19	433.19	53.573	882.48	221.25	-202.6	924.33	309.89	-184.95	925.55	238.52	-124.21	783.86	496.11	-35.027	792.43	104.24	-126.65	932.43	458.01	-51.275	927.69	123.12	-220.19	879.14	258.76	-174.44	590.33	465.7	-145.96	498.08	432.36	-216.77	514.68	440.37	-107.42	575.44	456.84	-227.46	434.51	421.61	-226.7	426.53	277.98	-391.55	285.62	391.95	-364.07	180.1	371.34	-419.85	218.01	377.65	-334.24	240.55	391.8	-449.22	123.63	359.21	-435.86	138	277.85	-512.21	130.88	304.18	-509.17	97.699	275.61	-518.63	98.974	338.91	-371.52	39.408	380.87	-341.86	32.546	272.99	-291.56	51.573	326.77	28.831	567.44	133.29	132.69	533.67	147.16	68.701	489.13	160.22	83.22	611.46	121.49	152.16	456.24	158.29	150.52	454.6	302.08	153.05	266.88	166.67	256.72	224.99	173.37	188	202.3	182.48	214.83	287.21	158.41	275.42	110.94	187.8	292.25	122.82	269.3	244.07	55.213	231.36	265.2	42.543	266.62	261.53	29.318	206.29	406.3	100.58	160	421.23	137.18	262.42	460.68	176.9	208.59	-146.72	1356.9	304.23	-224.07	1104	299.49
289	1.2	45.684	1061.7	309.62	-64.273	1291.8	444.16	-65.299	1300.2	150.9	-34.38	1580.4	307.24	-4.5001	885.49	432.93	59.964	881.79	221.02	-196.2	923.87	309.7	-178.7	925.08	238.31	-118.33	783.22	495.88	-28.638	792.03	104.08	-120.28	931.88	457.8	-44.925	926.98	122.87	-213.81	878.73	258.53	-168.96	589.85	465.63	-140.69	497.47	432.44	-211.45	514.29	440.34	-101.96	574.75	456.89	-222.39	434.13	421.74	-221.56	426.03	278.1	-387.95	286.9	392.17	-361.74	181.05	371.75	-416.99	219.57	377.94	-331.18	241.2	392.11	-447.35	125.38	359.68	-433.65	139.63	278.38	-510.09	133.73	304.74	-507.62	100.65	275.97	-517.09	101.78	339.29	-371.05	39.525	381.09	-341.82	32.588	273.08	-291.5	51.412	326.7	35.022	566.88	133.37	138.86	533.05	147.2	74.845	488.6	160.51	89.406	610.8	121.35	158.29	455.62	158.52	156.85	454.28	302.18	157.61	266.25	166.75	260.79	223.31	174.05	191.8	201.3	182.63	219.63	285.97	158.94	278.18	109.33	188.3	294.84	120.67	269.98	246.06	54.312	231.68	266.85	41.105	266.85	263.13	28.317	206.45	408.92	97.638	160.95	423.94	133.57	263.58	464.06	172.99	210.06	-140.43	1356.3	303.17	-217.62	1103.4	298.95
290	1.2042	52.188	1061.2	309.18	-57.932	1291.5	443.23	-58.8	1299.4	149.99	-28.5	1580	306.01	1.815	884.83	432.64	66.394	881.13	220.76	-189.75	923.43	309.53	-172.39	924.63	238.11	-112.36	782.59	495.66	-22.219	791.64	103.93	-113.81	931.36	457.58	-38.536	926.3	122.6	-207.37	878.33	258.32	-163.34	589.36	465.56	-135.27	496.86	432.53	-206	513.87	440.34	-96.368	574.07	456.95	-217.17	433.74	421.9	-216.27	425.5	278.25	-384.22	288.2	392.41	-359.29	182.03	372.2	-414.01	221.18	378.25	-327.99	241.86	392.47	-445.36	127.18	360.18	-431.3	141.31	278.94	-507.82	136.67	305.33	-505.93	103.71	276.36	-515.43	104.69	339.69	-370.56	39.651	381.32	-341.78	32.646	273.18	-291.44	51.255	326.63	41.201	566.35	133.44	144.99	532.42	147.26	80.94	488.07	160.81	95.603	610.15	121.24	164.36	454.98	158.75	163.05	453.92	302.27	162.11	265.64	166.83	264.79	221.62	174.74	195.53	200.3	182.78	224.37	284.72	159.48	280.85	107.75	188.81	297.32	118.53	270.67	247.88	53.557	231.97	268.31	39.76	267.05	264.53	27.449	206.6	411.4	94.641	161.92	426.52	129.86	264.77	467.36	168.94	211.57	-134.1	1355.7	302.09	-211.11	1102.8	298.39
291	1.2083	58.744	1060.7	308.73	-51.553	1291.2	442.28	-52.255	1298.7	149.07	-22.605	1579.6	304.76	8.2016	884.21	432.32	72.858	880.5	220.48	-183.25	923	309.38	-166.02	924.19	237.91	-106.28	781.97	495.44	-15.77	791.26	103.78	-107.27	930.88	457.36	-32.11	925.67	122.3	-200.89	877.93	258.14	-157.59	588.86	465.51	-129.7	496.24	432.65	-200.39	513.44	440.35	-90.641	573.4	457.03	-211.78	433.33	422.09	-210.8	424.94	278.45	-380.34	289.52	392.67	-356.7	183.04	372.7	-410.89	222.83	378.6	-324.68	242.55	392.88	-443.25	129.02	360.71	-428.82	143.02	279.53	-505.39	139.7	305.95	-504.11	106.88	276.76	-513.63	107.72	340.12	-370.03	39.789	381.57	-341.74	32.722	273.29	-291.38	51.102	326.57	47.366	565.84	133.51	151.1	531.77	147.33	86.988	487.55	161.09	101.81	609.5	121.14	170.39	454.35	158.99	169.12	453.52	302.33	166.56	265.03	166.9	268.73	219.95	175.46	199.2	199.32	182.93	229.05	283.49	160.04	283.44	106.21	189.33	299.7	116.42	271.37	249.56	52.963	232.25	269.61	38.529	267.25	265.76	26.729	206.74	413.75	91.607	162.89	429	126.08	265.98	470.6	164.76	213.11	-127.73	1355.1	300.98	-204.56	1102.2	297.82
292	1.2125	65.351	1060.3	308.25	-45.135	1291	441.32	-45.665	1298	148.12	-16.696	1579.3	303.49	14.658	883.63	431.97	79.353	879.92	220.18	-176.69	922.58	309.23	-159.59	923.75	237.71	-100.1	781.34	495.23	-9.2897	790.89	103.63	-100.65	930.44	457.15	-25.647	925.07	121.99	-194.36	877.53	257.99	-151.71	588.35	465.47	-123.97	495.62	432.79	-194.63	512.98	440.39	-84.777	572.73	457.12	-206.23	432.89	422.32	-205.15	424.33	278.68	-376.32	290.88	392.96	-353.96	184.09	373.26	-407.62	224.52	378.97	-321.23	243.26	393.33	-441.01	130.92	361.27	-426.19	144.78	280.15	-502.78	142.82	306.6	-502.15	110.15	277.19	-511.69	110.85	340.56	-369.47	39.941	381.82	-341.69	32.822	273.4	-291.29	50.951	326.51	53.517	565.37	133.58	157.18	531.12	147.43	92.987	487.05	161.36	108.02	608.88	121.06	176.37	453.71	159.24	175.05	453.07	302.38	170.96	264.43	166.98	272.62	218.3	176.19	202.82	198.36	183.1	233.69	282.28	160.61	285.98	104.74	189.87	302.01	114.36	272.08	251.12	52.538	232.51	270.78	37.425	267.43	266.86	26.167	206.87	416	88.55	163.86	431.39	122.23	267.2	473.78	160.46	214.66	-121.33	1354.5	299.86	-197.95	1101.6	297.24
293	1.2167	72.008	1059.9	307.76	-38.679	1290.8	440.34	-39.033	1297.4	147.16	-10.774	1579	302.21	21.183	883.08	431.59	85.876	879.36	219.85	-170.09	922.17	309.11	-153.11	923.33	237.51	-93.816	780.72	495.02	-2.7802	790.54	103.48	-93.946	930.03	456.93	-19.149	924.52	121.66	-187.79	877.14	257.86	-145.69	587.84	465.45	-118.08	494.99	432.97	-188.72	512.5	440.46	-78.775	572.07	457.23	-200.52	432.44	422.59	-199.32	423.67	278.97	-372.14	292.25	393.27	-351.09	185.16	373.87	-404.21	226.25	379.37	-317.65	243.98	393.83	-438.63	132.85	361.85	-423.42	146.58	280.8	-499.98	146.03	307.27	-500.03	113.53	277.64	-509.59	114.09	341.04	-368.88	40.11	382.08	-341.62	32.949	273.52	-291.19	50.804	326.46	59.653	564.93	133.64	163.22	530.47	147.54	98.94	486.58	161.62	114.24	608.27	121	182.29	453.08	159.49	180.83	452.59	302.41	175.34	263.86	167.08	276.47	216.69	176.93	206.42	197.44	183.28	238.29	281.09	161.2	288.48	103.34	190.41	304.28	112.36	272.79	252.58	52.286	232.77	271.83	36.459	267.62	267.84	25.768	206.99	418.15	85.487	164.83	433.71	118.34	268.41	476.93	156.08	216.21	-114.9	1354	298.72	-191.29	1101.1	296.65
294	1.2208	78.712	1059.6	307.25	-32.189	1290.6	439.35	-32.363	1296.7	146.18	-4.8372	1578.7	300.91	27.773	882.56	431.18	92.422	878.84	219.49	-163.45	921.77	308.99	-146.59	922.92	237.31	-87.426	780.09	494.81	3.7576	790.21	103.32	-87.17	929.66	456.7	-12.62	924.01	121.31	-181.17	876.75	257.75	-139.54	587.31	465.45	-112.03	494.35	433.18	-182.65	511.98	440.55	-72.634	571.42	457.36	-194.63	431.95	422.9	-193.31	422.96	279.31	-367.8	293.65	393.6	-348.06	186.26	374.53	-400.63	228.02	379.8	-313.92	244.73	394.37	-436.11	134.83	362.47	-420.49	148.41	281.49	-497	149.32	307.98	-497.75	117.02	278.12	-507.33	117.44	341.54	-368.25	40.301	382.35	-341.54	33.109	273.66	-291.07	50.658	326.41	65.774	564.54	133.69	169.25	529.83	147.67	104.85	486.13	161.87	120.47	607.7	120.97	188.17	452.47	159.75	186.47	452.09	302.42	179.7	263.33	167.19	280.29	215.14	177.68	210.01	196.57	183.48	242.85	279.95	161.81	290.96	102.02	190.95	306.52	110.45	273.5	253.97	52.202	233.02	272.78	35.635	267.8	268.73	25.531	207.11	420.21	82.433	165.77	435.98	114.43	269.6	480.04	151.61	217.73	-108.44	1353.6	297.57	-184.59	1100.6	296.04
295	1.225	85.461	1059.2	306.72	-25.663	1290.4	438.34	-25.656	1296.1	145.18	1.1125	1578.4	299.6	34.426	882.08	430.74	98.985	878.36	219.1	-156.77	921.38	308.89	-140.03	922.53	237.12	-80.934	779.45	494.61	10.322	789.91	103.16	-80.323	929.31	456.48	-6.0639	923.55	120.94	-174.52	876.36	257.67	-133.26	586.77	465.46	-105.82	493.7	433.43	-176.42	511.44	440.67	-66.355	570.77	457.52	-188.57	431.44	423.26	-187.1	422.2	279.71	-363.3	295.06	393.96	-344.88	187.39	375.24	-396.9	229.81	380.27	-310.05	245.49	394.97	-433.43	136.85	363.12	-417.4	150.28	282.21	-493.81	152.7	308.72	-495.29	120.61	278.62	-504.9	120.91	342.06	-367.57	40.517	382.62	-341.44	33.307	273.79	-290.91	50.512	326.38	71.879	564.2	133.73	175.24	529.22	147.82	110.72	485.72	162.1	126.69	607.17	120.95	194	451.89	160.01	191.95	451.57	302.4	184.04	262.84	167.32	284.1	213.65	178.43	213.6	195.76	183.7	247.4	278.86	162.42	293.41	100.78	191.5	308.73	108.63	274.21	255.31	52.278	233.27	273.66	34.955	267.99	269.54	25.45	207.23	422.19	79.4	166.68	438.2	110.52	270.76	483.12	147.09	219.22	-101.96	1353.1	296.4	-177.85	1100.2	295.42
